Coordinates
version=1
nRows=37
nColumns=38
inDegrees=no

Units are S.I. units (second, meters, Newtons, ...)
If the header above contains a line with 'inDegrees', this indicates whether rotational values are in degrees (yes) or radians (no).

endheader
time	pelvis_tilt	pelvis_list	pelvis_rotation	pelvis_tx	pelvis_ty	pelvis_tz	hip_flexion_r	hip_adduction_r	hip_rotation_r	knee_angle_r	ankle_angle_r	subtalar_angle_r	mtp_angle_r	hip_flexion_l	hip_adduction_l	hip_rotation_l	knee_angle_l	ankle_angle_l	subtalar_angle_l	mtp_angle_l	lumbar_extension	lumbar_bending	lumbar_rotation	arm_flex_r	arm_add_r	arm_rot_r	elbow_flex_r	pro_sup_r	wrist_flex_r	wrist_dev_r	arm_flex_l	arm_add_l	arm_rot_l	elbow_flex_l	pro_sup_l	wrist_flex_l	wrist_dev_l
1.06	-0.332126	0.020072	-0.0183001	0.986986	0.979989	-0.353576	0.985855	0.0125415	0.0921334	-1.59321	0.0986523	0	0	0.450793	0.122149	-0.0100561	-0.701509	0.391947	0	0	0.149368	-0.0253261	-0.0242708	-0.674238	-0.286267	-0.158999	1.65331	1.89797	0	0	-0.380488	-0.153933	-0.136159	1.98536	1.74579	0	0
1.07	-0.335504	0.0199203	-0.0296604	0.98975	0.987503	-0.353135	1.00063	0.018627	0.0928618	-1.5264	0.107694	0	0	0.395678	0.115871	-0.0159537	-0.65309	0.334993	0	0	0.161557	-0.0174031	-0.0278992	-0.706539	-0.28577	-0.171558	1.6833	1.89293	0	0	-0.390704	-0.153204	-0.135063	2.02654	1.74495	0	0
1.08	-0.337819	0.019545	-0.043526	0.992798	0.995192	-0.352433	1.009	0.0267995	0.0931813	-1.45144	0.114395	0	0	0.340656	0.107928	-0.0290916	-0.604147	0.267814	0	0	0.172503	-0.00851805	-0.0266833	-0.738541	-0.283339	-0.185433	1.71131	1.8858	0	0	-0.40054	-0.1539	-0.131361	2.06594	1.74603	0	0
1.09	-0.339317	0.0175294	-0.0592432	0.995964	1.00283	-0.351395	1.01075	0.03805	0.0920641	-1.36842	0.119601	0	0	0.286724	0.0981997	-0.0464681	-0.55603	0.192852	0	0	0.181922	0.00252224	-0.0220901	-0.769173	-0.279608	-0.199275	1.73676	1.87435	0	0	-0.409824	-0.155695	-0.12513	2.10308	1.75055	0	0
1.1	-0.341161	0.0134303	-0.0728995	0.998903	1.01012	-0.350217	1.00789	0.0500919	0.0881024	-1.27824	0.122521	0	0	0.239974	0.087438	-0.0626296	-0.518067	0.118561	0	0	0.190338	0.0148633	-0.019173	-0.796527	-0.27525	-0.211532	1.75979	1.86479	0	0	-0.419216	-0.158389	-0.117976	2.13965	1.75529	0	0
1.11	-0.3429	0.00935495	-0.0879255	1.00169	1.01698	-0.348723	0.999059	0.0647959	0.0866585	-1.18042	0.126927	0	0	0.196493	0.0769002	-0.0807931	-0.483392	0.0422288	0	0	0.197637	0.0270143	-0.0143612	-0.820124	-0.270956	-0.220658	1.77973	1.84231	0	0	-0.428826	-0.161905	-0.110582	2.17437	1.76865	0	0
1.12	-0.344939	0.0052682	-0.100357	1.00415	1.02317	-0.347304	0.985361	0.0789294	0.0868822	-1.07572	0.13092	0	0	0.162134	0.0676024	-0.0926222	-0.462196	-0.0280632	0	0	0.203962	0.0381842	-0.0122089	-0.83912	-0.267582	-0.227419	1.79766	1.82984	0	0	-0.439057	-0.16577	-0.104211	2.20806	1.77684	0	0
1.13	-0.344705	0.00208291	-0.110678	1.00649	1.02878	-0.346074	0.963938	0.091701	0.0912823	-0.964462	0.13386	0	0	0.13356	0.0604798	-0.0976902	-0.45359	-0.0896246	0	0	0.20657	0.0473762	-0.0118239	-0.853146	-0.265468	-0.23188	1.81366	1.82292	0	0	-0.449205	-0.169689	-0.0990507	2.23951	1.78171	0	0
1.14	-0.349524	0.000493908	-0.119483	1.00846	1.03303	-0.345048	0.942895	0.102897	0.10095	-0.846991	0.132389	0	0	0.123246	0.0553263	-0.0945506	-0.465592	-0.141941	0	0	0.215272	0.0550299	-0.0119841	-0.865441	-0.264435	-0.233808	1.82821	1.79971	0	0	-0.461026	-0.173716	-0.0933816	2.26738	1.78172	0	0
1.15	-0.348976	0.000643873	-0.125734	1.01046	1.03667	-0.344315	0.911451	0.109638	0.114983	-0.725452	0.13037	0	0	0.113685	0.0537164	-0.0863643	-0.488475	-0.180814	0	0	0.21691	0.0593379	-0.0130064	-0.872812	-0.263045	-0.236183	1.84147	1.79353	0	0	-0.47126	-0.178285	-0.0866547	2.29098	1.77825	0	0
1.16	-0.343896	0.00308619	-0.12982	1.01244	1.03954	-0.343863	0.872024	0.11109	0.132234	-0.603162	0.130694	0	0	0.102575	0.0560759	-0.0768433	-0.517257	-0.206681	0	0	0.212661	0.0598976	-0.0137803	-0.875997	-0.260734	-0.238909	1.85371	1.79423	0	0	-0.479601	-0.18348	-0.0783058	2.30947	1.77578	0	0
1.17	-0.342191	0.00586041	-0.130668	1.0139	1.04088	-0.343754	0.83545	0.108079	0.146323	-0.484374	0.132329	0	0	0.102845	0.060132	-0.0609987	-0.560414	-0.218788	0	0	0.211915	0.0601307	-0.0150653	-0.87828	-0.257581	-0.242217	1.86622	1.78675	0	0	-0.486794	-0.188853	-0.0665007	2.32195	1.75692	0	0
1.18	-0.336613	0.00985184	-0.131095	1.01517	1.04136	-0.343823	0.79823	0.102652	0.160918	-0.378896	0.135585	0	0	0.0994803	0.0660953	-0.0493109	-0.605007	-0.218265	0	0	0.205421	0.0586714	-0.0140148	-0.876986	-0.253892	-0.24632	1.87813	1.79077	0	0	-0.490967	-0.193934	-0.0545381	2.32788	1.75168	0	0
1.19	-0.330948	0.0141127	-0.131906	1.01603	1.04077	-0.343968	0.768231	0.0973965	0.174234	-0.295551	0.137162	0	0	0.100206	0.0714124	-0.0431264	-0.656478	-0.207835	0	0	0.197635	0.0572754	-0.0104807	-0.872947	-0.250717	-0.249978	1.88917	1.79564	0	0	-0.493175	-0.198339	-0.0426698	2.32691	1.75164	0	0
1.2	-0.325071	0.0156831	-0.13315	1.01643	1.03924	-0.344101	0.744522	0.0950126	0.178347	-0.235053	0.136399	0	0	0.108321	0.0718104	-0.0428962	-0.720697	-0.190788	0	0	0.187744	0.0592095	-0.00499125	-0.865945	-0.248787	-0.253349	1.89917	1.79777	0	0	-0.492923	-0.201721	-0.0301177	2.31873	1.74989	0	0
1.21	-0.318822	0.0153592	-0.134558	1.01652	1.03683	-0.344243	0.726445	0.0957442	0.175214	-0.197616	0.137996	0	0	0.122645	0.066497	-0.0507444	-0.795102	-0.173125	0	0	0.176093	0.0632605	0.00165704	-0.855564	-0.248744	-0.255741	1.90737	1.80131	0	0	-0.491415	-0.203635	-0.0183795	2.30409	1.7528	0	0
1.22	-0.310939	0.0102984	-0.134692	1.01643	1.03365	-0.344453	0.709058	0.10075	0.163317	-0.176676	0.145301	0	0	0.142053	0.050854	-0.0659668	-0.88067	-0.158332	0	0	0.160982	0.0721712	0.00793123	-0.84223	-0.250823	-0.258624	1.91451	1.81269	0	0	-0.48833	-0.20311	-0.0076071	2.28372	1.76978	0	0
1.23	-0.308069	0.00570883	-0.133209	1.01594	1.02903	-0.344806	0.701825	0.106417	0.155778	-0.174413	0.155805	0	0	0.173049	0.0307586	-0.0836804	-0.973813	-0.149828	0	0	0.152093	0.0805879	0.0134698	-0.827349	-0.255198	-0.258489	1.91944	1.81102	0	0	-0.48719	-0.200688	0.00160638	2.25952	1.77409	0	0
1.24	-0.306509	-0.000323437	-0.130493	1.01518	1.02326	-0.345101	0.69949	0.113555	0.149823	-0.188706	0.159548	0	0	0.210137	0.00466087	-0.102116	-1.07135	-0.14649	0	0	0.144524	0.089887	0.018554	-0.810044	-0.261306	-0.256941	1.92249	1.81028	0	0	-0.486651	-0.196915	0.00899694	2.23226	1.78374	0	0
1.25	-0.307869	-0.00663802	-0.127451	1.01407	1.01623	-0.345118	0.705514	0.122022	0.144813	-0.222726	0.14392	0	0	0.254086	-0.0258841	-0.120052	-1.17	-0.145422	0	0	0.140609	0.0987523	0.0238622	-0.790431	-0.268578	-0.253627	1.92315	1.81298	0	0	-0.487375	-0.193151	0.0145217	2.20266	1.80391	0	0
1.26	-0.317447	-0.0116583	-0.127022	1.01231	1.00754	-0.34462	0.728237	0.133565	0.14316	-0.280198	0.107838	0	0	0.308847	-0.0697466	-0.151591	-1.26814	-0.138962	0	0	0.147137	0.106698	0.0323333	-0.770395	-0.276975	-0.247345	1.92118	1.80142	0	0	-0.490623	-0.190326	0.0192622	2.17067	1.83008	0	0
1.27	-0.319796	-0.0162118	-0.127134	1.01057	0.998825	-0.343888	0.747638	0.146529	0.144891	-0.354145	0.0793498	0	0	0.355582	-0.106659	-0.170602	-1.35905	-0.123523	0	0	0.144646	0.112419	0.043194	-0.745552	-0.285606	-0.239887	1.91543	1.79692	0	0	-0.491265	-0.188882	0.0249703	2.13451	1.83968	0	0
1.28	-0.321662	-0.0231899	-0.127907	1.00823	0.989764	-0.343128	0.77412	0.166127	0.153095	-0.447803	0.0813702	0	0	0.4036	-0.149251	-0.187572	-1.44664	-0.0989317	0	0	0.140132	0.121036	0.0570165	-0.718349	-0.294974	-0.233251	1.90658	1.79215	0	0	-0.48891	-0.187439	0.0320201	2.09297	1.84669	0	0
1.29	-0.322072	-0.0312239	-0.129764	1.00525	0.980892	-0.342574	0.803924	0.190137	0.163268	-0.553618	0.119964	0	0	0.45219	-0.197454	-0.205029	-1.52971	-0.0691462	0	0	0.132086	0.131264	0.0745861	-0.687448	-0.30464	-0.226979	1.89284	1.7729	0	0	-0.482767	-0.185117	0.0390502	2.04481	1.86814	0	0
1.3	-0.316829	-0.0388885	-0.129715	1.0018	0.973182	-0.342462	0.826106	0.210259	0.165288	-0.657295	0.179905	0	0	0.501014	-0.232627	-0.206405	-1.60695	-0.0423935	0	0	0.115494	0.139924	0.0922074	-0.648067	-0.313291	-0.221045	1.87011	1.7646	0	0	-0.471881	-0.181494	0.046366	1.98698	1.87915	0	0
1.31	-0.308657	-0.0430783	-0.129372	0.998452	0.966773	-0.34245	0.831616	0.221805	0.163316	-0.736775	0.231265	0	0	0.54954	-0.250755	-0.197417	-1.67099	-0.0237991	0	0	0.0959683	0.143794	0.109752	-0.602149	-0.321574	-0.211893	1.83937	1.76157	0	0	-0.460574	-0.176387	0.0515217	1.92436	1.88449	0	0
1.32	-0.300092	-0.0452367	-0.126035	0.995047	0.961728	-0.342444	0.827501	0.22576	0.1572	-0.801639	0.283878	0	0	0.603986	-0.252992	-0.176541	-1.72765	-0.00865254	0	0	0.0763331	0.143418	0.121459	-0.545816	-0.32991	-0.194971	1.79756	1.75994	0	0	-0.450503	-0.169076	0.0517918	1.85221	1.9144	0	0
1.33	-0.293591	-0.0471937	-0.123356	0.99214	0.957894	-0.342033	0.810488	0.228423	0.1541	-0.841883	0.3271	0	0	0.65955	-0.248444	-0.153572	-1.76995	0.00442703	0	0	0.0605612	0.142731	0.132789	-0.488458	-0.338859	-0.173374	1.75517	1.76318	0	0	-0.443766	-0.161679	0.0508558	1.7812	1.92503	0	0
1.34	-0.289668	-0.0497685	-0.12017	0.989623	0.955271	-0.341483	0.786302	0.231503	0.15343	-0.865962	0.365683	0	0	0.71548	-0.24226	-0.131428	-1.79849	0.0166011	0	0	0.0488506	0.142986	0.144828	-0.434285	-0.34784	-0.150714	1.71876	1.76735	0	0	-0.44041	-0.156101	0.0490073	1.71773	1.92998	0	0
1.35	-0.288052	-0.0528102	-0.114885	0.987292	0.954171	-0.341148	0.757169	0.233437	0.153507	-0.878048	0.404884	0	0	0.772935	-0.233517	-0.109069	-1.81606	0.0281671	0	0	0.0405251	0.143822	0.15621	-0.383842	-0.355181	-0.129364	1.69146	1.77152	0	0	-0.440786	-0.153283	0.0462831	1.66547	1.93676	0	0
1.36	-0.28738	-0.0540583	-0.107418	0.985362	0.954668	-0.341249	0.721704	0.23053	0.153921	-0.877284	0.437742	0	0	0.827221	-0.219915	-0.0896124	-1.81993	0.0353759	0	0	0.0348826	0.142526	0.168175	-0.342022	-0.359376	-0.114261	1.68061	1.77744	0	0	-0.446521	-0.154467	0.0438626	1.63461	1.93272	0	0
1.37	-0.286502	-0.0521621	-0.0988197	0.984064	0.95682	-0.341734	0.678187	0.221327	0.154979	-0.86302	0.462904	0	0	0.874926	-0.199936	-0.0746797	-1.80946	0.0387622	0	0	0.0312594	0.137223	0.181029	-0.310199	-0.359668	-0.107372	1.68822	1.78806	0	0	-0.458539	-0.159856	0.0446417	1.6276	1.88364	0	0
1.38	-0.286538	-0.0480286	-0.0925581	0.983549	0.960373	-0.342222	0.628013	0.209591	0.15926	-0.836157	0.478647	0	0	0.915179	-0.182564	-0.0691144	-1.78494	0.0430251	0	0	0.0311181	0.129063	0.196197	-0.28781	-0.357257	-0.105877	1.71225	1.78602	0	0	-0.477838	-0.167415	0.0440546	1.64231	1.84513	0	0
1.39	-0.284887	-0.0444657	-0.0865159	0.984055	0.965375	-0.342662	0.568837	0.197181	0.163799	-0.796852	0.486425	0	0	0.944828	-0.166484	-0.0671168	-1.74721	0.0517605	0	0	0.0315147	0.120901	0.210765	-0.272252	-0.352886	-0.108309	1.74771	1.78987	0	0	-0.502327	-0.176442	0.0444236	1.67186	1.77485	0	0
1.4	-0.285853	-0.0410776	-0.0813202	0.985167	0.971237	-0.342908	0.509551	0.185676	0.169143	-0.751889	0.480966	0	0	0.970485	-0.155322	-0.0705653	-1.69857	0.0617085	0	0	0.0370906	0.11274	0.22378	-0.261368	-0.347041	-0.110594	1.78882	1.79303	0	0	-0.531722	-0.184843	0.0372491	1.71035	1.76473	0	0
1.41	-0.284894	-0.0384722	-0.0742095	0.986828	0.978062	-0.343089	0.446584	0.174239	0.172725	-0.702436	0.46246	0	0	0.986603	-0.150151	-0.0803921	-1.6393	0.0737062	0	0	0.0414737	0.104713	0.233193	-0.25264	-0.340199	-0.112465	1.83241	1.80275	0	0	-0.562303	-0.192935	0.0258312	1.75263	1.76958	0	0
1.42	-0.281825	-0.0356663	-0.064784	0.988803	0.98564	-0.343287	0.38227	0.161807	0.173344	-0.652212	0.429678	0	0	0.993536	-0.150965	-0.0995292	-1.57038	0.0849297	0	0	0.0435632	0.0957847	0.238577	-0.245224	-0.332498	-0.114664	1.87712	1.83695	0	0	-0.592565	-0.200234	0.00980377	1.79584	1.79989	0	0
